<?xml version="1.0" encoding="UTF-8" standalone="no"?>
<svg
   xmlns:dc="http://purl.org/dc/elements/1.1/"
   xmlns:cc="http://creativecommons.org/ns#"
   xmlns:rdf="http://www.w3.org/1999/02/22-rdf-syntax-ns#"
   xmlns:svg="http://www.w3.org/2000/svg"
   xmlns="http://www.w3.org/2000/svg"
   xmlns:sodipodi="http://sodipodi.sourceforge.net/DTD/sodipodi-0.dtd"
   xmlns:inkscape="http://www.inkscape.org/namespaces/inkscape"
   version="1.1"
   width="88.399994"
   height="53"
   id="svg2"
   inkscape:version="0.48.4 r9939"
   sodipodi:docname="shrna.svg"
   inkscape:export-filename="C:\Users\ddamerell\Farm\GIT_REPOS\saturn\build\public\static\js\images\shrna_16.png"
   inkscape:export-xdpi="40.723984"
   inkscape:export-ydpi="40.723984">
  <metadata
     id="metadata194">
    <rdf:RDF>
      <cc:Work
         rdf:about="">
        <dc:format>image/svg+xml</dc:format>
        <dc:type
           rdf:resource="http://purl.org/dc/dcmitype/StillImage" />
        <dc:title></dc:title>
      </cc:Work>
    </rdf:RDF>
  </metadata>
  <sodipodi:namedview
     pagecolor="#ffffff"
     bordercolor="#666666"
     borderopacity="1"
     objecttolerance="10"
     gridtolerance="10"
     guidetolerance="10"
     inkscape:pageopacity="0"
     inkscape:pageshadow="2"
     inkscape:window-width="1600"
     inkscape:window-height="1178"
     id="namedview192"
     showgrid="false"
     fit-margin-top="0"
     fit-margin-left="0"
     fit-margin-right="0"
     fit-margin-bottom="0"
     inkscape:zoom="8.9001172"
     inkscape:cx="33.57936"
     inkscape:cy="27.306551"
     inkscape:window-x="-8"
     inkscape:window-y="-8"
     inkscape:window-maximized="1"
     inkscape:current-layer="svg2" />
  <defs
     id="defs4">
    <inkscape:path-effect
       effect="bend_path"
       id="path-effect3863"
       is_visible="true"
       bendpath="m -45.531784,77.065678 c 0,36.546612 42.9025477,35.434322 42.5847511,-0.158898"
       prop_scale="1"
       scale_y_rel="false"
       vertical="false"
       bendpath-nodetypes="cc" />
  </defs>
  <g
     id="g3883"
     transform="matrix(0.89614091,0,0,0.89614091,-9.6787837,4.780435)">
    <rect
       y="-1.8199162"
       x="11.44068"
       height="9.5338984"
       width="65.625008"
       id="rect3031"
       style="fill:#ff0000;fill-opacity:1;stroke:none" />
    <path
       inkscape:original-d="m -45.531784,72.298729 42.5847511,0 0,9.533898 -42.5847511,0 z"
       inkscape:path-effect="#path-effect3863"
       id="rect3031-4"
       d="m -40.764835,77.065678 c 0.135867,6.531866 1.541763,13.10249 5.480326,17.215741 2.785948,3.108253 7.052108,5.112125 11.093397,4.990825 0,0 1e-6,0 1e-6,0 4.085244,0.0044 8.329012,-2.135048 11.139217,-5.327212 0,0 0,-10e-7 0,-10e-7 3.8498916,-4.141929 5.2761836,-10.596201 5.3381021,-16.995691 l 9.533518,-0.08512 c 0.1909919,8.05673 -2.02309698,16.633932 -7.7014922,23.36448 -1.1e-6,0 -2.1e-6,0 -3.2e-6,0 -4.5302307,5.18381 -11.1167887,8.40636 -18.1675887,8.57639 -7.039796,0.0435 -13.71902,-3.01613 -18.332586,-8.15801 -5.834605,-6.783409 -8.052656,-15.47592 -7.916789,-23.581402 z"
       style="fill:#0000ff;fill-opacity:1;stroke:none"
       transform="matrix(0,-1,1,0,0,0)"
       inkscape:connector-curvature="0" />
    <rect
       y="40.705059"
       x="11.44068"
       height="9.5338984"
       width="65.625008"
       id="rect3031-0"
       style="fill:#00ff00;fill-opacity:1;stroke:none" />
  </g>
</svg>
