<?xml version="1.0" encoding="UTF-8" standalone="no"?>
<svg
   xmlns:dc="http://purl.org/dc/elements/1.1/"
   xmlns:cc="http://creativecommons.org/ns#"
   xmlns:rdf="http://www.w3.org/1999/02/22-rdf-syntax-ns#"
   xmlns:svg="http://www.w3.org/2000/svg"
   xmlns="http://www.w3.org/2000/svg"
   xmlns:sodipodi="http://sodipodi.sourceforge.net/DTD/sodipodi-0.dtd"
   xmlns:inkscape="http://www.inkscape.org/namespaces/inkscape"
   version="1.1"
   width="391.93195"
   height="181.44778"
   id="svg2"
   inkscape:version="0.48.4 r9939"
   sodipodi:docname="trace_viewer.svg"
   inkscape:export-filename="C:\Users\ddamerell\Farm\GIT_REPOS\molbio\build\public\static\js\images\trace_background_500.png"
   inkscape:export-xdpi="111"
   inkscape:export-ydpi="111">
  <metadata
     id="metadata92">
    <rdf:RDF>
      <cc:Work
         rdf:about="">
        <dc:format>image/svg+xml</dc:format>
        <dc:type
           rdf:resource="http://purl.org/dc/dcmitype/StillImage" />
        <dc:title></dc:title>
      </cc:Work>
    </rdf:RDF>
  </metadata>
  <sodipodi:namedview
     pagecolor="#ffffff"
     bordercolor="#666666"
     borderopacity="1"
     objecttolerance="10"
     gridtolerance="10"
     guidetolerance="10"
     inkscape:pageopacity="0"
     inkscape:pageshadow="2"
     inkscape:window-width="1304"
     inkscape:window-height="906"
     id="namedview90"
     showgrid="false"
     inkscape:zoom="1.5604938"
     inkscape:cx="192.79602"
     inkscape:cy="80.150321"
     inkscape:window-x="113"
     inkscape:window-y="23"
     inkscape:window-maximized="0"
     inkscape:current-layer="svg2"
     fit-margin-top="0"
     fit-margin-left="0"
     fit-margin-right="0"
     fit-margin-bottom="0" />
  <defs
     id="defs4" />
  <g
     id="g6"
     transform="scale(0.60482595,0.60482595)">
    <rect
       x="0"
       y="0"
       width="405"
       height="300"
       id="rect8"
       style="fill:#ffffff;stroke:none" />
    <g
       id="g10">
      <path
         d="m 31,264 c 0,0 0.408868,0.0516 2,-13.125 2.408868,-19.94844 0.180316,0.0165 2,-20 2.180316,-23.98347 -0.07511,-0.007 2,-24 1.924887,-22.25651 -0.424726,-0.0486 2,-22.25 1.575274,-14.42361 -1.312846,-0.60598 2,-14.375 0.687154,-2.85598 1.151447,-4.10621 2,-2.25 3.151447,6.89379 0.64059,-0.0877 2,11 2.64059,21.53731 0.210431,-0.0176 2,21.625 2.210431,26.7324 -0.06228,0.005 2,26.75 1.93772,25.12981 -0.382179,0.0377 2,25.125 1.617821,17.03768 -1.570035,1.3811 2,17 0.429965,1.8811 1.030407,1.86349 2,0.5 3.030407,-4.26151 1.130892,0.23035 2,-6.125 3.130892,-22.89465 0.304962,0.0229 2,-23.125 2.304962,-31.47713 0.03495,0.002 2,-31.5 2.034952,-32.62282 -0.239199,-0.0167 2,-32.625 1.760801,-25.64167 -0.71497,-0.0873 2,-25.625 1.28503,-12.08731 -0.809686,-6.90744 2,-12 1.190314,-2.15744 1.17554,-0.29982 2,4.75 3.17554,19.45018 0.376856,-0.0321 2,19.75 2.376856,28.96793 0.04611,-0.003 2,29 2.046106,30.37189 -0.198047,0.0145 2,30.375 1.801953,24.88948 -0.437291,0.0451 2,24.875 1.562709,15.9201 -0.821725,0.17915 2,15.875 1.178275,6.55415 -1.078486,1.46866 2,6.375 0.921514,1.46866 0,0 2,0 2,0 0.164504,0.57359 2,0 2.164504,-0.67641 -0.156802,-0.4412 2,-1.25 1.843198,-0.6912 0.0095,-0.3122 2,-0.25 2.009524,0.0628 0,0 2,0.375 2,0.375 0,0 2,0.375 2,0.375 0,0 2,0.375 2,0.375 -0.01728,0.18588 2,0.375 1.982724,0.18588 0,0 2,0 2,0 0.462,0.96125 2,0 2.462,-1.53875 0.97903,0.46721 2,-2.5 2.97903,-8.65779 0.5327,0.0915 2,-9.125 2.5327,-15.90853 0.27287,0.03 2,-16 2.27287,-21.09504 0.0346,0.003 2,-21.125 2.03458,-21.87178 -0.24102,-0.0251 2,-21.875 1.75898,-17.15009 -0.79873,-0.15772 2,-17.125 1.20127,-7.28272 -0.31523,-5.89503 2,-7.125 1.68477,-0.89503 0.98093,-0.25456 2,5 2.98093,15.37044 0.32395,-0.0356 2,15.625 2.32395,21.71438 0.006,-5.2e-4 2,21.75 2.00568,21.87448 -0.22691,0.0234 2,21.875 1.77309,17.39843 -0.49357,0.0759 2,17.375 1.50643,10.45087 -1.00422,0.42353 2,10.375 0.99578,3.29853 -0.54604,1.04503 2,2.875 1.45396,1.04503 0.0658,0.36267 2,0 2.06576,-0.38733 0.0458,0.10497 2,-0.75 2.04578,-0.89503 -0.10951,-0.53854 2,-1 1.89049,-0.41354 0.0856,-0.35361 2,0.125 2.08557,0.52139 -0.0218,0.0537 2,0.875 1.97822,0.80365 -0.0658,0.36267 2,0.75 1.93424,0.36267 0,0 2,0 2,0 0,0 2,0 2,0 0.008,0.12452 2,0 2.00775,-0.12548 0,0 2,-0.25 2,-0.25 -0.006,-0.18732 2,-0.25 1.9942,-0.0623 -0.002,0.0624 2,0.125 1.99805,0.0624 0.002,-0.0624 2,0 2.00195,0.0626 0,0.125 2,0.125 2,0 0,0 2,-0.125 2,-0.125 0.006,0.062 2,-0.125 2.0058,-0.18804 -0.006,-0.062 2,-0.25 1.9942,-0.18696 0,0 2,-0.125 2,-0.125 -0.002,-0.0624 2,-0.125 1.99805,-0.0624 0.002,-0.0624 2,0 2.00195,0.0626 0,0 2,0.125 2,0.125 0.006,-0.062 2,0.125 2.0058,0.18804 0,0 2,0.25 2,0.25 -0.006,0.062 2,0.25 1.9942,0.18696 0,0 2,0.125 2,0.125 -0.002,0.0624 2,0.125 1.99805,0.0624 0,0 2,0 2,0 0,0 2,0 2,0 0.002,0.0624 2,0 2.00195,-0.0626 0,0 2,-0.125 2,-0.125 -0.002,-0.0624 2,-0.125 1.99805,-0.0624 0.002,-0.0624 2,0 2.00195,0.0626 0,0 2,0.125 2,0.125 -0.002,0.0624 2,0.125 1.99805,0.0624 0,0 2,0 2,0 0.002,0.0624 2,0 2.00195,-0.0626 0.006,0.062 2,-0.125 2.0058,-0.18804 -0.006,-0.062 2,-0.25 1.9942,-0.18696 -0.002,-0.0624 2,-0.125 1.99805,-0.0624 0,0 2,0 2,0 0.002,-0.0624 2,0 2.00195,0.0626 0.006,-0.062 2,0.125 2.0058,0.18804 -0.006,0.062 2,0.25 1.9942,0.18696 -0.002,0.0624 2,0.125 1.99805,0.0624 0,0 2,0 2,0 0,0 2,0 2,0 0,0 2,0 2,0 0,0 2,0 2,0 0.002,0.0624 2,0 2.00195,-0.0626 -0.002,-0.0624 2,-0.125 1.99805,-0.0624 0,0 2,0 2,0 0,0 2,0 2,0 0.002,-0.0624 2,0 2.00195,0.0626 -0.002,0.0624 2,0.125 1.99805,0.0624 0,0 2,0 2,0 0,0 2,0 2,0 0,0 2,0 2,0 0,0 2,0 2,0 0,0 2,0 2,0 0,0 2,0 2,0 0,0 2,0 2,0 0,0 2,0 2,0 0.002,0.0624 2,0 2.00195,-0.0626 0,0 2,-0.125 2,-0.125 0,0 2,-0.125 2,-0.125 -0.002,-0.0624 2,-0.125 1.99805,-0.0624 0,0 2,0 2,0 0,0 2,0 2,0 0.002,-0.0624 2,0 2.00195,0.0626 0,0 2,0.125 2,0.125 0,0 2,0.125 2,0.125 -0.002,0.0624 2,0.125 1.99805,0.0624 0,0 2,0 2,0 0.002,0.0624 2,0 2.00195,-0.0626 0,0 2,-0.125 2,-0.125 0,0 2,-0.125 2,-0.125 -0.002,-0.0624 2,-0.125 1.99805,-0.0624 0,0 2,0 2,0 0,0 2,0 2,0 0,0 2,0 2,0 0.002,0.0624 2,0 2.00195,-0.0626 -0.002,-0.0624 2,-0.125 1.99805,-0.0624 0,0 2,0 2,0 0.002,-0.0624 2,0 2.00195,0.0626 0,0 2,0.125 2,0.125 0,0 2,0.125 2,0.125 0,0 2,0.125 2,0.125 -0.002,0.0624 2,0.125 1.99805,0.0624 0.002,0.0624 2,0 2.00195,-0.0626 0,0 2,-0.125 2,-0.125 0.006,0.062 2,-0.125 2.0058,-0.18804 -0.008,-0.12452 2,-0.25 1.99225,-0.12452 0,0 2,0 2,0 0.008,-0.12452 2,0 2.00775,0.12548 -0.006,0.062 2,0.25 1.9942,0.18696 0,0 2,0.125 2,0.125 0,0.125 2,0.125 2,0 0.006,0.062 2,-0.125 2.0058,-0.18804 0.01,0.061 2,-0.25 2.00952,-0.31399 0,0 2,-0.375 2,-0.375 -0.01,-0.061 2,-0.375 1.99048,-0.31101 -0.008,-0.12452 2,-0.25 1.99225,-0.12452 0.008,-0.12452 2,0 2.00775,0.12548 0,0 2,0.25 2,0.25 0.01,-0.061 2,0.25 2.00952,0.31399 -0.01,0.061 2,0.375 1.99048,0.31101 -0.006,0.062 2,0.25 1.9942,0.18696 -0.002,0.0624 2,0.125 1.99805,0.0624 0,0 2,0 2,0 0.002,-0.0624 2,0 2.00195,0.0626 -0.002,0.0624 2,0.125 1.99805,0.0624 0,0 2,0 2,0 0,0 2,0 2,0 0.002,0.0624 2,0 2.00195,-0.0626 0.006,0.062 2,-0.125 2.0058,-0.18804 -0.008,-0.12452 2,-0.25 1.99225,-0.12452 0.002,-0.0624 2,0 2.00195,0.0626 0.006,-0.062 2,0.125 2.0058,0.18804 -0.008,0.12452 2,0.25 1.99225,0.12452 0,0 2,0 2,0 0,0 2,0 2,0 0.0658,0.36267 2,0 2.06576,-0.38733 0.0218,0.0537 2,-0.75 2.02178,-0.82135 -0.0856,-0.35361 2,-0.875 1.91443,-0.47861 0.10951,-0.53854 2,-0.125 2.10951,0.46146 -0.0458,0.10497 2,1 1.95422,0.85497 -0.0658,0.36267 2,0.75 1.93424,0.36267 0.40332,0.89813 2,0 2.40332,-1.35187 1.02513,0.52229 2,-2.25 3.02513,-8.60271 0.50355,0.0875 2,-9.125 2.50355,-15.4125 0.23183,0.0268 2,-15.5 2.23183,-19.59824 -0.006,-6.5e-4 2,-19.625 1.99368,-19.50065 -0.32362,-0.0397 2,-19.5 1.67638,-14.0397 -0.98474,-0.28886 2,-14 1.01526,-4.66386 0.3256,-5.2122 2,-4.375 2.3256,1.1628 0.79539,-0.17509 2,6.375 2.79539,15.19991 0.25202,-0.0291 2,15.375 2.25202,19.84593 -0.0445,0.005 2,19.875"
         stroke-miterlimit="10"
         id="path12"
         inkscape:connector-curvature="0"
         style="fill:none;stroke:#ff0000;stroke-width:2;stroke-miterlimit:10" />
    </g>
    <g
       id="g14">
      <path
         d="m 31,263.5 c 0,0 -1.090985,1.47715 2,6.5 0.909015,1.47715 0.373374,0.86415 2,0 2.373374,-1.26085 0.122845,0.10412 2,-2.125 2.122845,-2.52088 -0.474322,-1.23319 2,-2.625 1.525678,-0.85819 0.445614,-0.74222 2,0.375 2.445614,1.75778 -0.154836,0.14315 2,2.5 1.845164,2.01815 -0.312757,0.79089 2,1.875 1.687243,0.79089 0,0 2,0 2,0 0.252108,0.71008 2,0 2.252108,-0.91492 0.246095,0.23852 2,-1.625 2.246095,-2.38648 -0.184929,-0.16695 2,-2.625 1.815071,-2.04195 -0.283118,-0.5194 2,-1.875 1.716882,-1.0194 0.107038,-0.79578 2,-0.5 2.107038,0.32922 0.239201,-0.30565 2,1.125 2.239201,1.81935 0.09262,-0.0804 2,2.125 2.092621,2.41959 -0.378313,0.4933 2,2.5 1.621687,1.3683 -0.08751,0.41836 2,0.875 1.912489,0.41836 0.137237,0.5239 2,0 2.137237,-0.6011 0.269818,0.33484 2,-1.125 2.269818,-1.91516 -0.339809,-0.49514 2,-2.25 1.660191,-1.24514 0.278955,-1.28783 2,-0.75 2.278955,0.71217 0.03123,-0.0303 2,2 2.031228,2.0947 -0.373374,0.86415 2,2.125 1.626626,0.86415 0.763932,1.23607 2,0 2.763932,-2.76393 1.268288,0.36741 2,-4 3.268288,-19.50759 0.534813,0.0424 2,-19.875 2.534813,-34.45761 0.260744,0.0134 2,-34.5 2.260744,-44.86163 0.0138,6.1e-4 2,-44.875 2.013804,-45.49939 -0.29576,-0.0153 2,-45.5 1.70424,-33.765263 -0.949456,-0.10777 2,-33.75 1.050544,-11.982769 0.115893,-12.58154 2,-11.875 2.115893,0.79346 0.88363,-0.09121 2,13.375 2.88363,34.78379 0.269093,-0.0136 2,34.875 2.269093,45.7364 -0.02765,0.001 2,45.75 1.97235,44.50123 -0.274031,0.0143 2,44.5 1.72597,33.76428 -0.55578,0.0457 2,33.75 1.44422,19.04569 -1.34952,0.47297 2,19 0.65048,3.59797 -0.599,1.09453 2,3.125 1.401,1.09453 0.43289,0.93047 2,0 2.43289,-1.44453 -0.15528,-0.15237 2,-2.375 1.84472,-1.90237 -0.19605,-1.26961 2,-1.75 1.80395,-0.39461 0.31862,-0.43858 2,0.875 2.31862,1.81142 -0.29518,0.38516 2,2.25 1.70482,1.38516 -0.11146,0.47214 2,1 1.88854,0.47214 0.008,0.12452 2,0 2.00775,-0.12548 0.30519,0.65037 2,-0.25 2.30519,-1.22463 -0.12166,-0.15115 2,-1.875 1.87834,-1.52615 -0.191,-0.55337 2,-1.375 1.809,-0.67837 0.10951,-0.53854 2,-0.125 2.10951,0.46146 0.11146,-0.18034 2,1 2.11146,1.31966 -0.13537,0.23212 2,1.5 1.86463,1.10712 -0.0856,0.48396 2,0.875 1.91443,0.35896 0.1353,0.45772 2,-0.125 2.1353,-0.66728 0,0 2,-1.125 2,-1.125 -0.1353,-0.59118 2,-1.125 1.8647,-0.46618 0.28044,-0.68104 2,0.125 2.28044,1.06896 -0.2176,0.364 2,1.75 1.7824,1.114 -0.0658,0.36267 2,0.75 1.93424,0.36267 0.91675,1.35407 2,0 2.91675,-3.64593 0.93079,0.24582 2,-5 2.93079,-14.37918 0.4244,0.0478 2,-14.625 2.4244,-22.57725 0.16137,0.0132 2,-22.625 2.16137,-26.61181 -0.10823,-0.009 2,-26.625 1.89177,-23.8836 -0.50715,-0.0571 2,-23.875 1.49285,-14.1821 -1.50733,-1.63013 2,-14.125 0.49267,-1.75513 1.50356,-1.84704 2,-0.125 3.50356,12.15296 0.50552,-0.0575 2,14 2.50552,23.56754 0.1093,-0.009 2,23.625 2.1093,26.36623 -0.15204,0.0125 2,26.375 1.84796,22.63748 -0.41642,0.0466 2,22.625 1.58358,14.79661 -0.85495,0.20758 2,14.75 1.14505,5.83258 -0.99623,1.41155 2,5.625 1.00377,1.41155 0.0173,0.18588 2,0 2.01728,-0.18912 0.2654,0.54651 2,-0.375 2.2654,-1.20349 -0.27475,-0.61262 2,-1.75 1.72525,-0.86262 0.10373,-0.60555 2,-0.25 2.10373,0.39445 0.0533,-0.095 2,1 2.05329,1.15498 -0.16257,0.50662 2,1.25 1.83743,0.63162 -0.002,0.0624 2,0.125 1.99805,0.0624 0,0 2,0 2,0 0.008,0.12452 2,0 2.00775,-0.12548 0,0 2,-0.25 2,-0.25 -0.008,-0.12452 2,-0.25 1.99225,-0.12452 0.008,-0.12452 2,0 2.00775,0.12548 -0.008,0.12452 2,0.25 1.99225,0.12452 0.002,0.0624 2,0 2.00195,-0.0626 0.006,0.062 2,-0.125 2.0058,-0.18804 -0.006,-0.062 2,-0.25 1.9942,-0.18696 -0.002,-0.0624 2,-0.125 1.99805,-0.0624 0.002,-0.0624 2,0 2.00195,0.0626 0,0 2,0.125 2,0.125 0,0 2,0.125 2,0.125 -0.002,0.0624 2,0.125 1.99805,0.0624 0,0 2,0 2,0 0,0 2,0 2,0 0.0173,-0.18588 2,0 2.01728,0.18912 -0.0173,0.18588 2,0.375 1.98272,0.18588 0,0 2,0 2,0 0,0 2,0 2,0 0.0303,0.24621 2,0 2.03031,-0.25379 0.10704,0.26902 2,-0.5 2.10704,-0.85598 -0.0908,-0.21027 2,-1.125 1.9092,-0.83527 -0.0163,-0.56199 2,-0.625 1.98372,-0.062 0.25258,-0.48292 2,0.5 2.25258,1.26708 -0.28235,0.75147 2,1.75 1.71765,0.75147 0.008,0.12452 2,0 2.00775,-0.12548 1.13269,1.322 2,-0.25 3.13269,-5.678 0.65617,0.13908 2,-7 2.65617,-14.11092 0.35486,0.0422 2,-14.25 2.35486,-20.45781 0.11398,0.0105 2,-20.5 2.11398,-22.98949 -0.15072,-0.0142 2,-23 1.84928,-19.76418 -0.5896,-0.0852 2,-19.75 1.4104,-10.71019 -1.12881,-4.07406 2,-10.625 0.87119,-1.82406 1.3363,-0.6122 2,2.25 3.3363,14.3878 0.45647,-0.0494 2,15 2.45647,23.95058 0.0842,-0.007 2,24 2.08425,26.11826 -0.24547,0.0214 2,26.125 1.75453,20.39644 -0.888,0.159 2,20.375 1.112,7.784 -0.39744,5.97676 2,7.625 1.60256,1.10176 1.13966,0.28707 2,-4.875 3.13966,-18.83793 0.32531,0.0292 2,-19.125 2.32531,-26.59578 0.005,3.5e-4 2,-26.625 2.00466,-26.74965 -0.35528,-0.0324 2,-26.75 1.64472,-18.65735 -1.07712,-0.25843 2,-18.625 0.92288,-5.50843 0.56806,-6.90568 2,-5.25 2.56806,2.96932 0.7422,-0.10876 2,9.875 2.7422,21.76624 0.2308,-0.0189 2,21.875 2.2308,27.6061 -0.0844,0.006 2,27.625 1.91558,25.38138 -0.45608,0.0467 2,25.375 1.54392,15.92168 -1.53683,1.28559 2,15.875 0.46317,1.91059 1.36276,2.25794 2,0.625 3.36276,-8.61706 0.6903,0.0938 2,-10.875 2.6903,-22.53122 0.16599,0.0135 2,-22.625 2.16599,-26.73646 -0.14978,-0.0121 2,-26.75 1.85022,-23.01211 -0.55695,-0.0674 2,-23 1.44305,-12.9424 -1.40102,-2.88449 2,-12.875 0.59898,-1.75949 1.46184,-0.99401 2,1.125 3.46184,13.63099 0.48966,-0.0536 2,14.625 2.48966,24.19637 0.10667,-0.008 2,24.25 2.10667,26.99165 -0.21958,0.0183 2,27 1.78042,21.64328 -0.94678,0.16878 2,21.625 1.05322,7.66878 -0.65707,4.75989 2,7.5 1.34293,1.38489 1.36962,0.44665 2,-3.375 3.36962,-20.42835 0.39947,0.0319 2,-20.875 2.39947,-31.34314 0.08,0.005 2,-31.375 2.08001,-33.9951 -0.20602,-0.0135 2,-34 1.79398,-27.63852 -0.64015,-0.0684 2,-27.625 1.35985,-14.19341 -1.21157,-5.09246 2,-14.125 0.78843,-2.21746 1.3592,-0.50924 2,2.875 3.3592,17.74076 0.4268,-0.0385 2,18.25 2.4268,28.21152 0.0722,-0.005 2,28.25 2.07216,30.37007 -0.15919,0.0114 2,30.375 1.84081,25.88639 -0.3896,0.0375 2,25.875 1.6104,17.41247 -0.6804,0.11996 2,17.375 1.3196,8.49496 -1.24603,1.57863 2,8.375 0.75397,1.57863 0,0 2,0 2,0 0.28235,0.75147 2,0 2.28235,-0.99853 -0.0907,-0.11667 2,-1.75 1.90934,-1.49167 -0.191,-0.55337 2,-1.375 1.809,-0.67837 0.16257,-0.64178 2,-0.125 2.16257,0.60822 0.1812,-0.22778 2,1.25 2.1812,1.77222 -0.34315,0.82843 2,2 1.65685,0.82843 0,0 2,0 2,0 0.72,1.2 2,0 2.72,-2.55 0.97973,0.3311 2,-3.75 2.97973,-11.9189 0.45518,0.0603 2,-12.25 2.45518,-19.5647 0.20399,0.0188 2,-19.625 2.20399,-24.10615 -0.0261,-0.002 2,-24.125 1.97394,-23.50219 -0.35369,-0.0366 2,-23.5 1.64631,-16.41164 -1.09693,-0.30968 2,-16.375 0.90307,-4.68468 0.62852,-5.96077 2,-4.375 2.62852,3.03923 0.72597,-0.11724 2,9 2.72597,19.50776 0.22413,-0.0205 2,19.625 2.22413,24.60448 -0.057,0.005 2,24.625 1.94296,23.25477 -0.30039,0.0305 2,23.25 1.69961,17.15545 -0.58248,0.0967 2,17.125 1.41752,9.34675 -1.21939,0.89971 2,9.25 0.78061,2.02471 -0.13724,0.5239 2,1.125 1.86276,0.5239 0.1645,0.57359 2,0 2.1645,-0.67641 -0.0773,-0.14645 2,-1.25 1.92273,-1.02145 -0.0703,-0.61622 2,-0.875 1.92974,-0.24122 0.12003,-0.32999 2,0.375 2.12003,0.79501 -0.0908,0.21027 2,1.125 1.9092,0.83527 -0.0466,0.30522 2,0.625 1.95342,0.30522 0,0 2,0 2,0 0.0303,0.24621 2,0 2.03031,-0.25379 0.0572,0.16782 2,-0.5"
         stroke-miterlimit="10"
         id="path16"
         inkscape:connector-curvature="0"
         style="fill:none;stroke:#008000;stroke-width:2;stroke-miterlimit:10" />
    </g>
    <g
       id="g18">
      <path
         d="m 31,267.375 c 0,0 0.0058,-0.062 2,0.125 2.005803,0.18804 0.03883,-0.17901 2,0.25 2.038832,0.44599 0,0 2,0.625 2,0.625 0,0 2,0.625 2,0.625 -0.04463,0.24163 2,0.625 1.955368,0.36663 0,0.125 2,0.125 2,0 0.02836,0.18307 2,-0.125 2.028361,-0.31693 0.03547,0.11391 2,-0.5 2.035472,-0.63609 -0.03547,-0.11391 2,-0.75 1.964528,-0.61391 -0.02836,-0.18307 2,-0.5 1.971639,-0.30807 0.0058,-0.18732 2,-0.125 2.005803,0.0627 0.03883,-0.17901 2,0.25 2.038832,0.44599 -0.01628,0.0579 2,0.625 1.983724,0.55792 -0.01304,0.0596 2,0.5 1.986964,0.43465 -0.01533,0.12308 2,0.375 1.984673,0.24808 0,0.125 2,0.125 2,0 0.0058,0.062 2,-0.125 2.005803,-0.18804 -0.0058,-0.062 2,-0.25 1.994197,-0.18696 -0.0019,-0.0624 2,-0.125 1.998051,-0.0624 0.0019,-0.0624 2,0 2.001949,0.0626 0,0 2,0.125 2,0.125 0,0 2,0.125 2,0.125 0,0 2,0.125 2,0.125 -0.0019,0.0624 2,0.125 1.998051,0.0624 0.0019,-0.0624 2,0 2.001949,0.0626 -0.0019,0.0624 2,0.125 1.998051,0.0624 0.0019,-0.0624 2,0 2.001949,0.0626 -0.0019,0.0624 2,0.125 1.998051,0.0624 0.0019,0.0624 2,0 2.001949,-0.0626 0.02836,0.18307 2,-0.125 2.028361,-0.31693 0,0 2,-0.5 2,-0.5 0,0 2,-0.5 2,-0.5 -0.01304,-0.0596 2,-0.5 1.986964,-0.43465 -0.01728,-0.18588 2,-0.375 1.98272,-0.18588 0.0078,-0.12452 2,0 2.00775,0.12548 0.0226,-0.12077 2,0.25 2.02256,0.37923 -0.013,0.0596 2,0.5 1.98696,0.43465 -0.01,0.061 2,0.375 1.99048,0.31101 0,0.25 2,0.25 2,0 0.0226,0.12077 2,-0.25 2.02256,-0.37923 0.0163,0.0579 2,-0.5 2.01628,-0.56708 -0.0163,-0.0579 2,-0.625 1.98372,-0.55792 -0.0284,-0.18307 2,-0.5 1.97164,-0.30807 0.006,-0.18732 2,-0.125 2.0058,0.0627 0.0388,-0.17901 2,0.25 2.03883,0.44599 0.041,-0.10964 2,0.625 2.04097,0.76536 -0.0218,0.0537 2,0.875 1.97822,0.80365 -0.058,0.2355 2,0.75 1.94198,0.4855 -0.008,0.12452 2,0.25 1.99225,0.12452 0.0173,0.18588 2,0 2.01728,-0.18912 0.013,0.0596 2,-0.375 2.01304,-0.44035 0.0355,0.11391 2,-0.5 2.03547,-0.63609 -0.0192,-0.0559 2,-0.75 1.9808,-0.6809 0,0 2,-0.625 2,-0.625 0,0 2,-0.625 2,-0.625 -0.0163,-0.0579 2,-0.625 1.98372,-0.55792 -0.0226,-0.12077 2,-0.5 1.97744,-0.37077 0,-0.25 2,-0.25 2,0 0.0798,-0.29006 2,0.25 2.07977,0.58494 0.10587,-0.19045 2,0.875 2.10587,1.18455 0.0296,-0.0412 2,1.375 2.02961,1.45878 -0.21456,0.53113 2,1.5 1.78544,0.78113 -0.008,0.12452 2,0.25 1.99225,0.12452 0.0658,0.36267 2,0 2.06576,-0.38733 0.18712,0.3264 2,-0.75 2.18712,-1.2986 -0.22222,-0.44444 2,-1.625 1.77778,-0.94444 0.13436,-0.84981 2,-0.5 2.13436,0.40019 0.0885,-0.12388 2,1.25 2.08852,1.50112 -0.25211,0.71008 2,1.625 1.74789,0.71008 0.462,0.96125 2,0 2.462,-1.53875 1.24547,0.54168 2,-2.5 3.24547,-13.08332 0.5352,0.0618 2,-13.625 2.5352,-23.68824 0.25945,0.0193 2,-23.75 2.25945,-30.85567 0.016,0.001 2,-30.875 2.016,-31.37397 -0.29586,-0.0222 2,-31.375 1.70414,-23.27215 -0.92188,-0.14888 2,-23.25 1.07812,-8.52388 0.0814,-8.73473 2,-8.375 2.08145,0.39027 0.88623,-0.13325 2,9.125 2.88623,23.99175 0.30177,-0.0217 2,24.125 2.30177,32.72828 0.004,-2.3e-4 2,32.75 2.0038,32.87477 -0.25148,0.0175 2,32.875 1.74852,25.51751 -0.90958,0.1321 2,25.5 1.09042,9.5071 -1.30951,1.61834 2,9.375 0.69049,1.61834 1.51189,1.7389 2,0 3.51189,-12.5111 0.58199,0.063 2,-14.25 2.58199,-26.06195 0.15375,0.0109 2,-26.125 2.15375,-30.48907 -0.094,-0.006 2,-30.5 1.90602,-27.75647 -0.41631,-0.038 2,-27.75 1.58369,-18.16296 -1.24394,-0.3847 2,-18.125 0.75606,-4.1347 0.94053,-5.83583 2,-3.75 2.94053,5.78917 0.68035,-0.0869 2,11.625 2.68035,23.78814 0.22612,-0.017 2,23.875 2.22612,29.98299 -0.038,0.003 2,30 1.96196,28.87759 -0.30798,0.0252 2,28.875 1.69202,21.15024 -1.19034,0.28808 2,21.125 0.80966,5.28808 -0.90305,1.64335 2,5 1.09695,1.26835 1.57501,1.47104 2,-0.375 3.57501,-15.52896 0.39165,0.0385 2,-17 2.39165,-25.33654 0.10223,0.008 2,-25.375 2.10223,-28.11734 -0.17287,-0.0135 2,-28.125 1.82713,-23.63846 -0.54714,-0.064 2,-23.625 1.45286,-13.439 -1.4709,-2.20305 2,-13.375 0.5291,-1.70305 1.49109,-1.3448 2,0.5 3.49109,12.6552 0.48559,-0.0556 2,14 2.48559,23.06936 0.11627,-0.01 2,23.125 2.11627,25.9905 -0.14335,0.0119 2,26 1.85665,22.51188 -0.38747,0.0428 2,22.5 1.61253,15.16782 -0.7518,0.16207 2,15.125 1.2482,6.78707 -1.10317,1.48538 2,6.625 0.89683,1.48538 0.0303,0.24621 2,0 2.03031,-0.25379 0.31365,0.55397 2,-0.5 2.31365,-1.44603 -0.32635,-0.61873 2,-2 1.67365,-0.99373 0.0703,-0.61622 2,-0.375 2.07026,0.25878 0.10587,-0.19045 2,0.875 2.10587,1.18455 -0.14668,0.30166 2,1.375 1.85332,0.92666 -0.0466,0.30522 2,0.625 1.95342,0.30522 0.008,0.12452 2,0 2.00775,-0.12548 0.10373,0.34259 2,-0.25 2.10373,-0.65741 -0.024,-0.0512 2,-1 1.976,-0.92625 -0.0703,-0.22804 2,-0.875 1.92974,-0.60304 -0.0153,-0.24904 2,-0.375 1.98467,-0.12404 0.0153,-0.12308 2,0.125 2.01533,0.25192 0.0293,-0.11767 2,0.375 2.02931,0.50733 -0.0163,0.0579 2,0.625 1.98372,0.55792 -0.013,0.0596 2,0.5 1.98696,0.43465 -0.0153,0.12308 2,0.375 1.98467,0.24808 0,0.125 2,0.125 2,0 0.006,0.062 2,-0.125 2.0058,-0.18804 0.01,0.061 2,-0.25 2.00952,-0.31399 0,0 2,-0.375 2,-0.375 -0.01,-0.061 2,-0.375 1.99048,-0.31101 0,0 2,-0.25 2,-0.25 -0.006,-0.062 2,-0.25 1.9942,-0.18696 0.006,0.062 2,-0.125 2.0058,-0.18804 0,0 2,-0.25 2,-0.25 0,0 2,-0.25 2,-0.25 -0.006,-0.062 2,-0.25 1.9942,-0.18696 0.006,-0.18732 2,-0.125 2.0058,0.0627 0.0226,-0.12077 2,0.25 2.02256,0.37923 0.0572,-0.16782 2,0.5 2.05724,0.70718 0,0 2,0.875 2,0.875 -0.0572,0.16782 2,0.875 1.94276,0.66782 -0.0303,0.24621 2,0.5 1.96969,0.24621 0.0466,0.30522 2,0 2.04658,-0.31978 0.041,0.10964 2,-0.625 2.04097,-0.76536 -0.0218,-0.0537 2,-0.875 1.97822,-0.80365 -0.0355,-0.11391 2,-0.75 1.96453,-0.61391 -0.0226,-0.37359 2,-0.5 1.97744,-0.12359 0.0388,-0.17901 2,0.25 2.03883,0.44599 0.0192,-0.0559 2,0.625 2.0192,0.6941 0,0 2,0.75 2,0.75 -0.0485,0.17386 2,0.75 1.9515,0.54886 -0.0173,0.18588 2,0.375 1.98272,0.18588 0,0 2,0 2,0 0.002,0.0624 2,0 2.00195,-0.0626 0.006,0.062 2,-0.125 2.0058,-0.18804 0.01,0.061 2,-0.25 2.00952,-0.31399 0.0485,0.17386 2,-0.375 2.0485,-0.57614 0.0218,0.0537 2,-0.75 2.02178,-0.82135 0.024,0.0512 2,-0.875 2.024,-0.94875 -0.0458,-0.10497 2,-1 1.95422,-0.85497 -0.0638,-0.29854 2,-0.75 1.93618,-0.42354 0.006,-0.18732 2,-0.125 2.0058,0.0627 0.0388,-0.17901 2,0.25 2.03883,0.44599 0.041,-0.10964 2,0.625 2.04097,0.76536 -0.0218,0.0537 2,0.875 1.97822,0.80365 -0.0192,0.0559 2,0.75 1.9808,0.6809 -0.0293,0.11767 2,0.625 1.97069,0.49267 -0.01,0.061 2,0.375 1.99048,0.31101 0,0 2,0.25 2,0.25 -0.006,0.062 2,0.25 1.9942,0.18696 -0.002,0.0624 2,0.125 1.99805,0.0624 0.008,0.12452 2,0 2.00775,-0.12548 0.0226,0.12077 2,-0.25 2.02256,-0.37923 0.0355,0.11391 2,-0.5 2.03547,-0.63609 0,0 2,-0.75 2,-0.75 -0.0355,-0.11391 2,-0.75 1.96453,-0.61391 -0.0284,-0.18307 2,-0.5 1.97164,-0.30807 0.006,-0.18732 2,-0.125 2.0058,0.0627 0.0388,-0.17901 2,0.25 2.03883,0.44599 0.0192,-0.0559 2,0.625 2.0192,0.6941 -0.058,0.2355 2,0.75 1.94198,0.4855 0,0.25 2,0.25 2,0 0.058,0.2355 2,-0.25 2.05802,-0.5145 0,0 2,-0.75 2,-0.75 -0.0638,-0.29854 2,-0.75 1.93618,-0.42354 0.1353,-0.59118 2,-0.125"
         stroke-miterlimit="10"
         id="path20"
         inkscape:connector-curvature="0"
         style="fill:none;stroke:#0000ff;stroke-width:2;stroke-miterlimit:10" />
    </g>
    <g
       id="g22">
      <path
         d="m 31,269.75 c 0,0 0,0 2,0.125 2,0.125 -0.0019,0.0624 2,0.125 1.998051,0.0624 0,0 2,0 2,0 0,0 2,0 2,0 0,0 2,0 2,0 0,0 2,0 2,0 0.0019,0.0624 2,0 2.001949,-0.0626 0,0 2,-0.125 2,-0.125 0,0 2,-0.125 2,-0.125 -0.0019,-0.0624 2,-0.125 1.998051,-0.0624 0,0 2,0 2,0 0,0 2,0 2,0 0.0019,-0.0624 2,0 2.001949,0.0626 -0.0019,0.0624 2,0.125 1.998051,0.0624 0.0019,0.0624 2,0 2.001949,-0.0626 -0.0019,-0.0624 2,-0.125 1.998051,-0.0624 0.0019,0.0624 2,0 2.001949,-0.0626 0,0 2,-0.125 2,-0.125 -0.0019,-0.0624 2,-0.125 1.998051,-0.0624 0,0 2,0 2,0 0.0019,-0.0624 2,0 2.001949,0.0626 0.0058,-0.062 2,0.125 2.005803,0.18804 -0.0058,0.062 2,0.25 1.994197,0.18696 0,0 2,0.125 2,0.125 -0.0019,0.0624 2,0.125 1.998051,0.0624 0,0 2,0 2,0 0,0 2,0 2,0 0,0 2,0 2,0 0,0 2,0 2,0 0,0 2,0 2,0 0,0 2,0 2,0 0.01728,0.18588 2,0 2.017276,-0.18912 -0.0095,-0.061 2,-0.375 1.990476,-0.31101 0.0095,0.061 2,-0.25 2.00952,-0.31399 -0.01533,-0.12308 2,-0.375 1.98467,-0.24808 0.006,-0.18732 2,-0.125 2.0058,0.0627 0.0388,-0.17901 2,0.25 2.03883,0.44599 -0.0388,0.17901 2,0.625 1.96117,0.42901 -0.008,0.12452 2,0.25 1.99225,0.12452 0,0 2,0 2,0 0.11146,0.47214 2,0 2.11146,-0.52786 0.0259,0.0487 2,-1 2.02588,-1.07625 -0.1353,-0.45772 2,-1.125 1.8647,-0.58272 0.16257,-0.64178 2,-0.125 2.16257,0.60822 -0.0533,0.095 2,1.25 1.94671,1.09502 -0.11146,0.47214 2,1 1.88854,0.47214 0.51862,1.01845 2,0 2.51862,-1.73155 1.10494,0.46662 2,-2.75 3.10494,-11.15838 0.49129,0.0675 2,-11.625 2.49129,-19.30746 0.22665,0.021 2,-19.375 2.22665,-24.35401 -0.0206,-0.002 2,-24.375 1.97942,-23.87671 -0.35445,-0.0361 2,-23.875 1.64555,-16.66115 -1.09099,-0.30074 2,-16.625 0.90901,-4.80074 0.60734,-6.06674 2,-4.5 2.60734,2.93326 0.73142,-0.11788 2,9 2.73142,19.63212 0.21793,-0.0199 2,19.75 2.21793,24.60512 -0.0624,0.005 2,24.625 1.93761,23.13023 -0.30933,0.0317 2,23.125 1.69067,16.9067 -0.59312,0.10079 2,16.875 1.40688,9.10079 -1.24759,1.08399 2,9 0.75241,1.83399 -0.0658,0.36267 2,0.75 1.93424,0.36267 0.34315,0.82843 2,0 2.34315,-1.17157 -0.20836,-0.27472 2,-2 1.79164,-1.39972 -0.12003,-0.72749 2,-1.125 1.87997,-0.35249 0.12003,-0.32999 2,0.375 2.12003,0.79501 0.0274,-0.0462 2,1.125 2.02742,1.20378 -0.14733,0.37765 2,1.25 1.85267,0.75265 -0.0173,0.18588 2,0.375 1.98272,0.18588 0.0303,0.24621 2,0 2.03031,-0.25379 0,0 2,-0.5 2,-0.5 -0.0226,-0.12077 2,-0.5 1.97744,-0.37077 0,-0.25 2,-0.25 2,0 0.01,-0.061 2,0.25 2.00952,0.31399 0.013,-0.0596 2,0.375 2.01304,0.44035 -0.0284,0.18307 2,0.5 1.97164,0.30807 -0.002,0.0624 2,0.125 1.99805,0.0624 0.002,0.0624 2,0 2.00195,-0.0626 0.0446,0.24163 2,-0.125 2.04463,-0.38337 -0.0163,-0.0579 2,-0.625 1.98372,-0.55792 0,0 2,-0.5 2,-0.5 -0.0284,-0.18307 2,-0.5 1.97164,-0.30807 0,-0.125 2,-0.125 2,0 0.0153,-0.12308 2,0.125 2.01533,0.25192 0.013,-0.0596 2,0.375 2.01304,0.44035 -0.013,0.0596 2,0.5 1.98696,0.43465 0,0 2,0.375 2,0.375 -0.0173,0.18588 2,0.375 1.98272,0.18588 0.002,0.0624 2,0 2.00195,-0.0626 0.006,0.062 2,-0.125 2.0058,-0.18804 0,0 2,-0.25 2,-0.25 -0.006,-0.062 2,-0.25 1.9942,-0.18696 -0.002,-0.0624 2,-0.125 1.99805,-0.0624 0,0 2,0 2,0 0.008,-0.12452 2,0 2.00775,0.12548 -0.006,0.062 2,0.25 1.9942,0.18696 0.006,-0.062 2,0.125 2.0058,0.18804 -0.006,0.062 2,0.25 1.9942,0.18696 0,0 2,0.125 2,0.125 -0.002,0.0624 2,0.125 1.99805,0.0624 0,0 2,0 2,0 0,0 2,0 2,0 0.008,0.12452 2,0 2.00775,-0.12548 0,0 2,-0.25 2,-0.25 -0.006,-0.062 2,-0.25 1.9942,-0.18696 0,0 2,-0.125 2,-0.125 0,0 2,-0.125 2,-0.125 0,-0.125 2,-0.125 2,0 0,0 2,0.125 2,0.125 0.006,-0.062 2,0.125 2.0058,0.18804 0,0 2,0.25 2,0.25 -0.006,0.062 2,0.25 1.9942,0.18696 -0.002,0.0624 2,0.125 1.99805,0.0624 0,0 2,0 2,0 0,0 2,0 2,0 0,0 2,0 2,0 0,0 2,0 2,0 0,0 2,0 2,0 0.002,0.0624 2,0 2.00195,-0.0626 0,0 2,-0.125 2,-0.125 -0.002,-0.0624 2,-0.125 1.99805,-0.0624 0,0 2,0 2,0 0.002,-0.0624 2,0 2.00195,0.0626 0,0 2,0.125 2,0.125 -0.002,0.0624 2,0.125 1.99805,0.0624 0,0 2,0 2,0 0.002,0.0624 2,0 2.00195,-0.0626 0.0153,0.12308 2,-0.125 2.01533,-0.25192 -0.01,-0.061 2,-0.375 1.99048,-0.31101 -0.006,-0.062 2,-0.25 1.9942,-0.18696 -0.002,-0.0624 2,-0.125 1.99805,-0.0624 0.002,-0.0624 2,0 2.00195,0.0626 0.006,-0.062 2,0.125 2.0058,0.18804 0,0 2,0.25 2,0.25 0,0 2,0.25 2,0.25 -0.008,0.12452 2,0.25 1.99225,0.12452 0,0 2,0 2,0 0,0 2,0 2,0 0,0 2,0 2,0 0.008,0.12452 2,0 2.00775,-0.12548 0.01,0.061 2,-0.25 2.00952,-0.31399 -0.01,-0.061 2,-0.375 1.99048,-0.31101 -0.006,-0.18732 2,-0.25 1.9942,-0.0623 0.0153,-0.12308 2,0.125 2.01533,0.25192 0,0 2,0.375 2,0.375 -0.0173,0.18588 2,0.375 1.98272,0.18588 0,0 2,0 2,0 0.0303,0.24621 2,0 2.03031,-0.25379 0.19224,0.40388 2,-0.5 2.19224,-1.09612 -0.15703,-0.28667 2,-1.5 1.84297,-1.03667 0.0218,-0.81182 2,-0.75 2.02178,0.0632 0.2268,-0.34408 2,0.875 2.2268,1.53092 -0.31276,0.79089 2,1.875 1.68724,0.79089 0,0 2,0 2,0 1.29463,1.60912 2,0 3.29463,-7.51588 0.645,0.10596 2,-9.125 2.645,-18.01904 0.32088,0.0305 2,-18.125 2.32088,-25.09453 0.0807,0.006 2,-25.125 2.08067,-27.24383 -0.21737,-0.0179 2,-27.25 1.78263,-21.89291 -0.71108,-0.10161 2,-21.875 1.28892,-10.35161 -0.67825,-6.5674 2,-10.25 1.32175,-1.8174 1.12323,-0.29141 2,4.75 3.12323,17.95859 0.34736,-0.0324 2,18.25 2.34736,25.96762 0.0189,-0.001 2,26 2.01894,26.49856 -0.22412,0.0191 2,26.5 1.77588,21.14406 -0.51452,0.0659 2,21.125 1.48548,12.44086 -1.14649,0.47733 2,12.375 0.85351,3.22733 -0.51862,1.01845 2,2.75 1.48138,1.01845 0.28235,0.75147 2,0 2.28235,-0.99853 -0.0308,-0.0365 2,-1.75 1.96921,-1.66152 -0.25019,-0.78118 2,-1.625 1.74981,-0.65618 0.191,-0.55337 2,0.125 2.191,0.82163 0.0296,-0.0412 2,1.375 2.02961,1.45878 -0.20514,0.46634 2,1.5 1.79486,0.84134 -0.0173,0.18588 2,0.375 1.98272,0.18588 0.008,0.12452 2,0 2.00775,-0.12548 0.058,0.2355 2,-0.25 2.05802,-0.5145 -0.0485,-0.17386 2,-0.75 1.9515,-0.54886 -0.0153,-0.24904 2,-0.375 1.98467,-0.12404 0.0153,-0.12308 2,0.125 2.01533,0.25192 0,0 2,0.375 2,0.375 0.013,-0.0596 2,0.375 2.01304,0.44035 -0.0303,0.24621 2,0.5 1.96969,0.24621 0,0 2,0 2,0 0,0 2,0 2,0 0,0 2,0 2,0 0,0 2,0 2,0 0,0 2,0"
         stroke-miterlimit="10"
         id="path24"
         inkscape:connector-curvature="0"
         style="fill:none;stroke:#ffa500;stroke-width:2;stroke-miterlimit:10" />
    </g>
    <g
       id="g26">
      <text
         font-size="10px"
         font-style="normal"
         font-weight="normal"
         text-decoration="none"
         x="39"
         y="282"
         dominant-baseline="alphabetic"
         id="text28"
         style="font-size:10px;font-style:normal;font-weight:normal;text-decoration:none;text-anchor:start;fill:#000000;stroke:none;font-family:sans-serif">G</text>
      <text
         font-size="10px"
         font-style="normal"
         font-weight="normal"
         text-decoration="none"
         x="65"
         y="282"
         dominant-baseline="alphabetic"
         id="text30"
         style="font-size:10px;font-style:normal;font-weight:normal;text-decoration:none;text-anchor:start;fill:#000000;stroke:none;font-family:sans-serif">G</text>
      <text
         font-size="10px"
         font-style="normal"
         font-weight="normal"
         text-decoration="none"
         x="91"
         y="282"
         dominant-baseline="alphabetic"
         id="text32"
         style="font-size:10px;font-style:normal;font-weight:normal;text-decoration:none;text-anchor:start;fill:#000000;stroke:none;font-family:sans-serif">A</text>
      <text
         font-size="10px"
         font-style="normal"
         font-weight="normal"
         text-decoration="none"
         x="113"
         y="282"
         dominant-baseline="alphabetic"
         id="text34"
         style="font-size:10px;font-style:normal;font-weight:normal;text-decoration:none;text-anchor:start;fill:#000000;stroke:none;font-family:sans-serif">G</text>
      <text
         font-size="10px"
         font-style="normal"
         font-weight="normal"
         text-decoration="none"
         x="137"
         y="282"
         dominant-baseline="alphabetic"
         id="text36"
         style="font-size:10px;font-style:normal;font-weight:normal;text-decoration:none;text-anchor:start;fill:#000000;stroke:none;font-family:sans-serif">C</text>
      <text
         font-size="10px"
         font-style="normal"
         font-weight="normal"
         text-decoration="none"
         x="159"
         y="282"
         dominant-baseline="alphabetic"
         id="text38"
         style="font-size:10px;font-style:normal;font-weight:normal;text-decoration:none;text-anchor:start;fill:#000000;stroke:none;font-family:sans-serif">A</text>
      <text
         font-size="10px"
         font-style="normal"
         font-weight="normal"
         text-decoration="none"
         x="183"
         y="282"
         dominant-baseline="alphabetic"
         id="text40"
         style="font-size:10px;font-style:normal;font-weight:normal;text-decoration:none;text-anchor:start;fill:#000000;stroke:none;font-family:sans-serif">T</text>
      <text
         font-size="10px"
         font-style="normal"
         font-weight="normal"
         text-decoration="none"
         x="207"
         y="282"
         dominant-baseline="alphabetic"
         id="text42"
         style="font-size:10px;font-style:normal;font-weight:normal;text-decoration:none;text-anchor:start;fill:#000000;stroke:none;font-family:sans-serif">T</text>
      <text
         font-size="10px"
         font-style="normal"
         font-weight="normal"
         text-decoration="none"
         x="233"
         y="282"
         dominant-baseline="alphabetic"
         id="text44"
         style="font-size:10px;font-style:normal;font-weight:normal;text-decoration:none;text-anchor:start;fill:#000000;stroke:none;font-family:sans-serif">T</text>
      <text
         font-size="10px"
         font-style="normal"
         font-weight="normal"
         text-decoration="none"
         x="255"
         y="282"
         dominant-baseline="alphabetic"
         id="text46"
         style="font-size:10px;font-style:normal;font-weight:normal;text-decoration:none;text-anchor:start;fill:#000000;stroke:none;font-family:sans-serif">A</text>
      <text
         font-size="10px"
         font-style="normal"
         font-weight="normal"
         text-decoration="none"
         x="279"
         y="282"
         dominant-baseline="alphabetic"
         id="text48"
         style="font-size:10px;font-style:normal;font-weight:normal;text-decoration:none;text-anchor:start;fill:#000000;stroke:none;font-family:sans-serif">A</text>
      <text
         font-size="10px"
         font-style="normal"
         font-weight="normal"
         text-decoration="none"
         x="301"
         y="282"
         dominant-baseline="alphabetic"
         id="text50"
         style="font-size:10px;font-style:normal;font-weight:normal;text-decoration:none;text-anchor:start;fill:#000000;stroke:none;font-family:sans-serif">A</text>
      <text
         font-size="10px"
         font-style="normal"
         font-weight="normal"
         text-decoration="none"
         x="325"
         y="282"
         dominant-baseline="alphabetic"
         id="text52"
         style="font-size:10px;font-style:normal;font-weight:normal;text-decoration:none;text-anchor:start;fill:#000000;stroke:none;font-family:sans-serif">A</text>
      <text
         font-size="10px"
         font-style="normal"
         font-weight="normal"
         text-decoration="none"
         x="349"
         y="282"
         dominant-baseline="alphabetic"
         id="text54"
         style="font-size:10px;font-style:normal;font-weight:normal;text-decoration:none;text-anchor:start;fill:#000000;stroke:none;font-family:sans-serif">C</text>
      <text
         font-size="10px"
         font-style="normal"
         font-weight="normal"
         text-decoration="none"
         x="371"
         y="282"
         dominant-baseline="alphabetic"
         id="text56"
         style="font-size:10px;font-style:normal;font-weight:normal;text-decoration:none;text-anchor:start;fill:#000000;stroke:none;font-family:sans-serif">A</text>
      <text
         font-size="10px"
         font-style="normal"
         font-weight="normal"
         text-decoration="none"
         x="397"
         y="282"
         dominant-baseline="alphabetic"
         id="text58"
         style="font-size:10px;font-style:normal;font-weight:normal;text-decoration:none;text-anchor:start;fill:#000000;stroke:none;font-family:sans-serif">G</text>
      <text
         font-size="10px"
         font-style="normal"
         font-weight="normal"
         text-decoration="none"
         x="21"
         y="276"
         dominant-baseline="alphabetic"
         id="text60"
         style="font-size:10px;font-style:normal;font-weight:normal;text-decoration:none;text-anchor:start;fill:#000000;stroke:none;font-family:sans-serif">0</text>
      <text
         font-size="10px"
         font-style="normal"
         font-weight="normal"
         text-decoration="none"
         x="9"
         y="251"
         dominant-baseline="alphabetic"
         id="text62"
         style="font-size:10px;font-style:normal;font-weight:normal;text-decoration:none;text-anchor:start;fill:#000000;stroke:none;font-family:sans-serif">200</text>
      <text
         font-size="10px"
         font-style="normal"
         font-weight="normal"
         text-decoration="none"
         x="9"
         y="226"
         dominant-baseline="alphabetic"
         id="text64"
         style="font-size:10px;font-style:normal;font-weight:normal;text-decoration:none;text-anchor:start;fill:#000000;stroke:none;font-family:sans-serif">400</text>
      <text
         font-size="10px"
         font-style="normal"
         font-weight="normal"
         text-decoration="none"
         x="9"
         y="201"
         dominant-baseline="alphabetic"
         id="text66"
         style="font-size:10px;font-style:normal;font-weight:normal;text-decoration:none;text-anchor:start;fill:#000000;stroke:none;font-family:sans-serif">600</text>
      <text
         font-size="10px"
         font-style="normal"
         font-weight="normal"
         text-decoration="none"
         x="9"
         y="176"
         dominant-baseline="alphabetic"
         id="text68"
         style="font-size:10px;font-style:normal;font-weight:normal;text-decoration:none;text-anchor:start;fill:#000000;stroke:none;font-family:sans-serif">800</text>
      <text
         font-size="10px"
         font-style="normal"
         font-weight="normal"
         text-decoration="none"
         x="3"
         y="151"
         dominant-baseline="alphabetic"
         id="text70"
         style="font-size:10px;font-style:normal;font-weight:normal;text-decoration:none;text-anchor:start;fill:#000000;stroke:none;font-family:sans-serif">1000</text>
      <text
         font-size="10px"
         font-style="normal"
         font-weight="normal"
         text-decoration="none"
         x="3"
         y="126"
         dominant-baseline="alphabetic"
         id="text72"
         style="font-size:10px;font-style:normal;font-weight:normal;text-decoration:none;text-anchor:start;fill:#000000;stroke:none;font-family:sans-serif">1200</text>
      <text
         font-size="10px"
         font-style="normal"
         font-weight="normal"
         text-decoration="none"
         x="3"
         y="101"
         dominant-baseline="alphabetic"
         id="text74"
         style="font-size:10px;font-style:normal;font-weight:normal;text-decoration:none;text-anchor:start;fill:#000000;stroke:none;font-family:sans-serif">1400</text>
      <text
         font-size="10px"
         font-style="normal"
         font-weight="normal"
         text-decoration="none"
         x="3"
         y="76"
         dominant-baseline="alphabetic"
         id="text76"
         style="font-size:10px;font-style:normal;font-weight:normal;text-decoration:none;text-anchor:start;fill:#000000;stroke:none;font-family:sans-serif">1600</text>
      <text
         font-size="10px"
         font-style="normal"
         font-weight="normal"
         text-decoration="none"
         x="3"
         y="51"
         dominant-baseline="alphabetic"
         id="text78"
         style="font-size:10px;font-style:normal;font-weight:normal;text-decoration:none;text-anchor:start;fill:#000000;stroke:none;font-family:sans-serif">1800</text>
      <text
         font-size="10px"
         font-style="normal"
         font-weight="normal"
         text-decoration="none"
         x="3"
         y="26"
         dominant-baseline="alphabetic"
         id="text80"
         style="font-size:10px;font-style:normal;font-weight:normal;text-decoration:none;text-anchor:start;fill:#000000;stroke:none;font-family:sans-serif">2000</text>
    </g>
    <g
       id="g82">
      <path
         d="m 29,23 0,250"
         stroke-miterlimit="10"
         id="path84"
         inkscape:connector-curvature="0"
         style="fill:none;stroke:#000000;stroke-width:2;stroke-miterlimit:10" />
    </g>
    <g
       id="g86">
      <path
         d="m 30,272 374,0"
         stroke-miterlimit="10"
         id="path88"
         inkscape:connector-curvature="0"
         style="fill:none;stroke:#000000;stroke-width:2;stroke-miterlimit:10" />
    </g>
  </g>
  <g
     id="g3980"
     transform="translate(1.2816456,-48.702536)">
    <path
       inkscape:connector-curvature="0"
       id="path3060"
       d="m 300.15031,174.18849 -10,0"
       style="fill:none;stroke:#000000;stroke-width:1px;stroke-linecap:butt;stroke-linejoin:miter;stroke-opacity:1" />
    <path
       inkscape:connector-curvature="0"
       id="path3062"
       d="m 280.15031,179.18849 0,10"
       style="fill:none;stroke:#000000;stroke-width:1px;stroke-linecap:butt;stroke-linejoin:miter;stroke-opacity:1" />
    <path
       inkscape:connector-curvature="0"
       id="path3064"
       d="m 280.15031,199.18849 0,10"
       style="fill:none;stroke:#000000;stroke-width:1px;stroke-linecap:butt;stroke-linejoin:miter;stroke-opacity:1" />
    <path
       inkscape:connector-curvature="0"
       id="path3066"
       d="m 290.15031,214.18849 10,0"
       style="fill:none;stroke:#000000;stroke-width:1px;stroke-linecap:butt;stroke-linejoin:miter;stroke-opacity:1" />
    <path
       inkscape:connector-curvature="0"
       id="path3068"
       d="m 310.15031,214.18849 10,0"
       style="fill:none;stroke:#000000;stroke-width:1px;stroke-linecap:butt;stroke-linejoin:miter;stroke-opacity:1" />
    <path
       inkscape:connector-curvature="0"
       id="path3070"
       d="m 330.15031,214.18849 10,0"
       style="fill:none;stroke:#000000;stroke-width:1px;stroke-linecap:butt;stroke-linejoin:miter;stroke-opacity:1" />
    <path
       inkscape:connector-curvature="0"
       id="path3072"
       d="m 350.15031,214.18849 10,0"
       style="fill:none;stroke:#000000;stroke-width:1px;stroke-linecap:butt;stroke-linejoin:miter;stroke-opacity:1" />
    <path
       inkscape:connector-curvature="0"
       id="path3074"
       d="m 370.15031,214.18849 10,0"
       style="fill:none;stroke:#000000;stroke-width:1px;stroke-linecap:butt;stroke-linejoin:miter;stroke-opacity:1" />
    <path
       inkscape:connector-curvature="0"
       id="path3076"
       d="m 390.15031,209.18849 0,-10"
       style="fill:none;stroke:#000000;stroke-width:1px;stroke-linecap:butt;stroke-linejoin:miter;stroke-opacity:1" />
    <path
       inkscape:connector-curvature="0"
       id="path3078"
       d="m 390.15031,189.18849 0,-10"
       style="fill:none;stroke:#000000;stroke-width:1px;stroke-linecap:butt;stroke-linejoin:miter;stroke-opacity:1" />
    <path
       inkscape:connector-curvature="0"
       id="path3080"
       d="m 380.15031,174.18849 -10,0"
       style="fill:none;stroke:#000000;stroke-width:1px;stroke-linecap:butt;stroke-linejoin:miter;stroke-opacity:1" />
    <path
       inkscape:connector-curvature="0"
       id="path3082"
       d="m 360.15031,174.18849 -10,0"
       style="fill:none;stroke:#000000;stroke-width:1px;stroke-linecap:butt;stroke-linejoin:miter;stroke-opacity:1" />
    <path
       inkscape:connector-curvature="0"
       id="path3084"
       d="m 340.15031,174.18849 -10,0"
       style="fill:none;stroke:#000000;stroke-width:1px;stroke-linecap:butt;stroke-linejoin:miter;stroke-opacity:1" />
    <path
       inkscape:connector-curvature="0"
       id="path3086"
       d="m 320.15031,174.18849 -10,0"
       style="fill:none;stroke:#000000;stroke-width:1px;stroke-linecap:butt;stroke-linejoin:miter;stroke-opacity:1" />
  </g>
  <text
     xml:space="preserve"
     style="font-size:40px;font-style:normal;font-weight:normal;line-height:125%;letter-spacing:0px;word-spacing:0px;fill:#000000;fill-opacity:1;stroke:none;font-family:Sans"
     x="310.12921"
     y="148.48596"
     id="text3868"
     sodipodi:linespacing="125%"><tspan
       sodipodi:role="line"
       id="tspan3870"
       x="310.12921"
       y="148.48596"
       style="font-size:12px">.abl,.fasta</tspan></text>
  <g
     id="g3910"
     transform="translate(284.43196,-866.87623)">
    <g
       transform="translate(-0.2034465,8)"
       id="g3862">
      <path
         style="fill:#ffffff;stroke:#ff6600;stroke-width:0.73802441;stroke-linecap:round;stroke-linejoin:round;stroke-miterlimit:4;stroke-opacity:1;stroke-dasharray:none"
         d="m 84.788593,954.36218 0,-85 -46.246592,-0.3276 -18.923701,18.9237 0.170293,66.4039 z"
         id="path3816"
         inkscape:connector-curvature="0"
         sodipodi:nodetypes="cccccc" />
      <path
         style="fill:#ffe6d5;stroke:#ffe6d5;stroke-width:0.75694805px;stroke-linecap:butt;stroke-linejoin:miter;stroke-opacity:1"
         d="m 35.609507,888.41214 3.32018,-3.02173 -0.07461,2.98443 z"
         id="path3875"
         inkscape:connector-curvature="0" />
      <path
         style="fill:#ffffff;stroke:#ff6600;stroke-width:0.73802441;stroke-linecap:round;stroke-linejoin:round;stroke-miterlimit:4;stroke-opacity:1;stroke-dasharray:none"
         d="m 19.6183,887.95828 18.923701,0 0,-18.9237 z"
         id="path3820"
         inkscape:connector-curvature="0"
         sodipodi:nodetypes="cccc" />
      <path
         style="fill:none;stroke:#ffe6d5;stroke-width:0.75694805px;stroke-linecap:butt;stroke-linejoin:round;stroke-opacity:1"
         d="m 19.988153,888.70419 19.30791,0.008 0.008,-19.30683"
         id="path3873"
         inkscape:connector-curvature="0"
         sodipodi:nodetypes="ccc" />
    </g>
    <path
       inkscape:connector-curvature="0"
       id="path3088"
       d="m 42,945.36218 20,0 0,40 10,0 -20,20.00002 -20,-20.00002 10,0 0,-40 0,0"
       style="fill:#ff6600;fill-opacity:1;stroke:none" />
  </g>
</svg>
