<?xml version="1.0" encoding="UTF-8" standalone="no"?>
<svg
   xmlns:dc="http://purl.org/dc/elements/1.1/"
   xmlns:cc="http://creativecommons.org/ns#"
   xmlns:rdf="http://www.w3.org/1999/02/22-rdf-syntax-ns#"
   xmlns:svg="http://www.w3.org/2000/svg"
   xmlns="http://www.w3.org/2000/svg"
   xmlns:sodipodi="http://sodipodi.sourceforge.net/DTD/sodipodi-0.dtd"
   xmlns:inkscape="http://www.inkscape.org/namespaces/inkscape"
   version="1.1"
   width="98"
   height="62.832031"
   id="svg2"
   inkscape:version="0.48.4 r9939"
   sodipodi:docname="trace.svg"
   inkscape:export-filename="C:\Users\ddamerell\Farm\GIT_REPOS\molbio\build\public\static\js\images\trace_16.png"
   inkscape:export-xdpi="15.107971"
   inkscape:export-ydpi="15.107971">
  <metadata
     id="metadata68">
    <rdf:RDF>
      <cc:Work
         rdf:about="">
        <dc:format>image/svg+xml</dc:format>
        <dc:type
           rdf:resource="http://purl.org/dc/dcmitype/StillImage" />
        <dc:title></dc:title>
      </cc:Work>
    </rdf:RDF>
  </metadata>
  <sodipodi:namedview
     pagecolor="#ffffff"
     bordercolor="#666666"
     borderopacity="1"
     objecttolerance="10"
     gridtolerance="10"
     guidetolerance="10"
     inkscape:pageopacity="0"
     inkscape:pageshadow="2"
     inkscape:window-width="1858"
     inkscape:window-height="1178"
     id="namedview66"
     showgrid="false"
     fit-margin-top="0"
     fit-margin-left="0"
     fit-margin-right="0"
     fit-margin-bottom="0"
     inkscape:zoom="2.2250293"
     inkscape:cx="-35.611435"
     inkscape:cy="127.14509"
     inkscape:window-x="54"
     inkscape:window-y="-8"
     inkscape:window-maximized="1"
     inkscape:current-layer="svg2" />
  <defs
     id="defs4" />
  <path
     d="m 3.5,55.911657 c 0,0 0.0019,0.0624 2,0 2.001949,-0.0626 0.0058,0.062 2,-0.125 2.005803,-0.18804 0,-0.25 2,-0.25 2,0 -0.0058,0.062 2,0.25 1.994197,0.18696 -0.0019,0.0624 2,0.125 1.998051,0.0624 0.03031,0.24621 2,0 2.03031,-0.25379 0.374154,0.61777 2,-0.5 2.374154,-1.63223 0.460325,0.30009 2,-2.25 2.460325,-4.07491 0.325604,0.12494 2,-4.375 2.325604,-6.25006 0.165002,0.0475 2,-6.375 2.165002,-7.57751 0.01523,0.004 2,-7.625 2.015229,-7.74604 -0.16254,-0.046 2,-7.75 1.83746,-6.54595 -0.389364,-0.15325 2,-6.5 1.610636,-4.27825 -0.728624,-0.79949 2,-4.125 1.271376,-1.54949 0.428283,-1.48674 2,-0.75 2.428283,1.13826 0.557721,-0.30463 2,2.625 2.557721,5.19537 0.265164,-0.084 2,5.5 2.265164,7.291 0.04634,-0.0123 2,7.375 2.046344,7.73774 -0.111304,0.0305 2,7.75 1.888696,6.90554 -0.241344,0.0809 2,6.875 1.758656,5.33093 -0.38201,0.18823 2,5.25 1.61799,3.43823 -0.416741,0.38012 2,3.25 1.583259,1.88012 -0.220297,0.598 2,1.5 1.779703,0.723 -0.0019,0.0624 2,0.125 1.998051,0.0624 0.0078,0.12452 2,0 2.007752,-0.12548 -0.0058,-0.062 2,-0.25 1.994197,-0.18696 -0.0019,-0.0624 2,-0.125 1.998051,-0.0624 0.0019,-0.0624 2,0 2.001949,0.0626 0,0 2,0.125 2,0.125 0,0.125 2,0.125 2,0 0,0 2,-0.125 2,-0.125 0,0 2,-0.125 2,-0.125 0,0 2,-0.125 2,-0.125 0,-0.125 2,-0.125 2,0 0,0 2,0.125 2,0.125 0,0 2,0.125 2,0.125 0,0 2,0.125 2,0.125 0,0 2,0.125 2,0.125 -0.002,0.0624 2,0.125 1.99805,0.0624 0,0 2,0 2,0 0.002,0.0624 2,0 2.00195,-0.0626 0.0638,0.29854 2,-0.125 2.06382,-0.45146 0.15703,0.28667 2,-0.75 2.15703,-1.21333 0.30519,0.30074 2,-1.5 2.30519,-2.44926 0.24747,0.15262 2,-2.75 2.24747,-3.72238 0.18871,0.0872 2,-3.875"
     stroke-miterlimit="10"
     id="path12"
     inkscape:connector-curvature="0"
     style="fill:none;stroke:#ff0000;stroke-width:5;stroke-miterlimit:10;stroke-dasharray:none" />
  <path
     d="m 3.5,55.786657 c 0,0 -0.0058,-0.062 2,-0.25 1.994197,-0.18696 -0.0019,-0.0624 2,-0.125 1.998051,-0.0624 0,0 2,0 2,0 0.0078,-0.12452 2,0 2.007752,0.12548 -0.0058,0.062 2,0.25 1.994197,0.18696 0,0 2,0.125 2,0.125 0,0.125 2,0.125 2,0 0.0058,0.062 2,-0.125 2.005803,-0.18804 0,0 2,-0.25 2,-0.25 0.0095,0.061 2,-0.25 2.009524,-0.31399 -0.01728,-0.18588 2,-0.375 1.982724,-0.18588 0.0019,-0.0624 2,0 2.001949,0.0626 0,0 2,0.125 2,0.125 0.01533,-0.12308 2,0.125 2.015327,0.25192 -0.01533,0.12308 2,0.375 1.984673,0.24808 0.0058,-0.062 2,0.125 2.005803,0.18804 -0.0078,0.12452 2,0.25 1.992248,0.12452 0.01728,0.18588 2,0 2.017276,-0.18912 0.120032,0.32999 2,-0.375 2.120032,-0.79501 0.359406,0.41306 2,-1.125 2.359406,-2.21194 0.43856,0.25391 2,-2.625 2.43856,-4.49609 0.342002,0.12037 2,-4.75 2.342002,-6.87963 0.221943,0.0567 2,-7 2.221943,-8.81833 0.07745,0.0168 2,-8.875 2.077454,-9.60823 -0.132324,-0.0295 2,-9.625 1.867676,-8.40454 -0.440631,-0.13787 2,-8.375 1.559369,-5.2628702 -0.90966,-1.03329 2,-5.1250002 1.09034,-1.53329 0.779898,-1.64385 2,-0.5 2.779898,2.6061502 0.520721,-0.18784 2,4.2500002 2.520721,7.56216 0.167148,-0.0396 2,7.75 2.167148,9.21038 -0.167148,0.0396 2,9.25 1.832852,7.78962 -0.520721,0.18784 2,7.75 1.479279,4.43784 -0.790924,1.54629 2,4.25 1.209076,1.17129 0.885648,1.08759 2,-0.375 2.88565,-3.78741 0.38258,0.12889 2,-4.875 2.38258,-7.37111 0.0457,0.0119 2,-7.5 2.04569,-7.86311 -0.28666,-0.0861 2,-7.875 1.71334,-5.83608 -0.73112,-0.45845 2,-5.75 1.26888,-2.45845 0.0623,-2.1211 2,-2 2.06233,0.1289 0.69347,-0.40388 2,2.25 2.69347,5.47112 0.28232,-0.0832 2,5.875 2.28232,7.91681 0.0572,-0.0139 2,8 2.05724,8.48611 -0.13323,0.0337 2,8.5 1.86677,7.40873 -0.24559,0.0768 2,7.375 1.75441,5.70184 -0.4138,0.19394 2,5.625 1.5862,3.56894 -0.38463,0.31969 2,3.375"
     stroke-miterlimit="10"
     id="path16"
     inkscape:connector-curvature="0"
     style="fill:none;stroke:#008000;stroke-width:5;stroke-miterlimit:10;stroke-dasharray:none" />
  <path
     d="m 3.5,34.661657 c 0,0 -0.437673,-0.28878 2,-4.25 1.562327,-2.53878 -0.395878,-0.75258 2,-2.25 1.604122,-1.00258 0.30519,-0.93852 2,-0.25 2.30519,0.93648 0.380848,-0.30074 2,1.875 2.380848,3.19926 0.199496,-0.10101 2,3.5 2.199496,4.39899 0.04553,-0.0197 2,4.5 2.045534,4.7303 -0.04553,0.0197 2,4.75 1.954466,4.5197 -0.147024,0.0718 2,4.5 1.852976,3.82176 -0.192917,0.11798 2,3.75 1.807083,2.99298 -0.304413,0.28254 2,2.875 1.695587,1.90754 -0.206133,0.38405 2,1.625 1.793867,1.00905 -0.03883,0.43386 2,0.625 1.961168,0.18386 0.103727,0.34259 2,-0.25 2.103727,-0.65741 0,0 2,-1 2,-1 -0.06496,-0.16111 2,-1 1.93504,-0.78611 -0.04463,-0.24163 2,-0.625 1.955368,-0.36663 0.04463,-0.36942 2,-0.125 2.044632,0.25558 0.06496,-0.16111 2,0.625 2.06496,0.83889 -0.024,0.0512 2,1 1.975997,0.92625 -0.05724,0.16782 2,0.875 1.942761,0.66782 -0.03031,0.24621 2,0.5 1.96969,0.24621 0.03031,0.24621 2,0 2.03031,-0.25379 0.05724,0.16782 2,-0.5 2.057239,-0.70718 -0.04097,-0.10964 2,-0.875 1.959027,-0.73464 -0.03883,-0.17901 2,-0.625 1.961168,-0.42901 0,-0.25 2,-0.25 2,0 0.03883,-0.17901 2,0.25 2.038832,0.44599 0.04097,-0.10964 2,0.625 2.040973,0.76536 -0.05724,0.16782 2,0.875 1.942761,0.66782 -0.03031,0.24621 2,0.5 1.96969,0.24621 0,0 2,0 2,0 0.01728,0.18588 2,0 2.017276,-0.18912 0.01304,0.0596 2,-0.375 2.013036,-0.44035 -0.02256,-0.12077 2,-0.5 1.97744,-0.37077 -0.0078,-0.12452 2,-0.25 1.99225,-0.12452 0.008,-0.12452 2,0 2.00775,0.12548 0.0226,-0.12077 2,0.25 2.02256,0.37923 -0.013,0.0596 2,0.5 1.98696,0.43465 -0.0173,0.18588 2,0.375 1.98272,0.18588 0.002,0.0624 2,0 2.00195,-0.0626 0.0284,0.18307 2,-0.125 2.02836,-0.31693 -0.013,-0.0596 2,-0.5 1.98696,-0.43465 -0.01,-0.061 2,-0.375 1.99048,-0.31101 -0.006,-0.18732 2,-0.25 1.9942,-0.0623 0.0153,-0.12308 2,0.125 2.01533,0.25192 0.013,-0.0596 2,0.375"
     stroke-miterlimit="10"
     id="path20"
     inkscape:connector-curvature="0"
     style="fill:none;stroke:#0000ff;stroke-width:5;stroke-miterlimit:10;stroke-dasharray:none" />
  <path
     d="m 3.5,55.911657 c 0,0 0,0 2,0 2,0 0,0 2,0 2,0 0.0019,0.0624 2,0 2.001949,-0.0626 0,0 2,-0.125 2,-0.125 -0.0019,-0.0624 2,-0.125 1.998051,-0.0624 0,0 2,0 2,0 0.0019,-0.0624 2,0 2.001949,0.0626 0,0 2,0.125 2,0.125 -0.0019,0.0624 2,0.125 1.998051,0.0624 0,0 2,0 2,0 0,0 2,0 2,0 0.0019,0.0624 2,0 2.001949,-0.0626 0,0 2,-0.125 2,-0.125 -0.0019,-0.0624 2,-0.125 1.998051,-0.0624 0,0 2,0 2,0 0.0019,-0.0624 2,0 2.001949,0.0626 0,0 2,0.125 2,0.125 -0.0019,0.0624 2,0.125 1.998051,0.0624 0,0 2,0 2,0 0,0 2,0 2,0 0,0 2,0 2,0 0.0019,0.0624 2,0 2.001949,-0.0626 -0.0019,-0.0624 2,-0.125 1.998051,-0.0624 0,0 2,0 2,0 0,0 2,0 2,0 0,0 2,0 2,0 0.0019,-0.0624 2,0 2.001949,0.0626 -0.0019,0.0624 2,0.125 1.998051,0.0624 0,0 2,0 2,0 0,0 2,0 2,0 0,0 2,0 2,0 0,0 2,0 2,0 0.0019,0.0624 2,0 2.001949,-0.0626 -0.0019,-0.0624 2,-0.125 1.99805,-0.0624 0.0019,-0.0624 2,0 2.00195,0.0626 -0.002,0.0624 2,0.125 1.99805,0.0624 0,0 2,0 2,0 0,0 2,0 2,0 0,0 2,0 2,0 0,0 2,0 2,0 0,0 2,0 2,0 0,0 2,0 2,0 0,0 2,0 2,0 0,0 2,0 2,0 0,0 2,0 2,0 0,0 2,0"
     stroke-miterlimit="10"
     id="path24"
     inkscape:connector-curvature="0"
     style="fill:none;stroke:#ffa500;stroke-width:5;stroke-miterlimit:10;stroke-dasharray:none" />
  <path
     d="m 3.0505678,2.5 0,57.83203"
     stroke-miterlimit="10"
     id="path60"
     inkscape:connector-curvature="0"
     style="fill:none;stroke:#000000;stroke-width:5;stroke-miterlimit:10;stroke-dasharray:none" />
  <g
     id="g62"
     transform="translate(-27.5,-214.08834)">
    <path
       style="fill:none;stroke:#000000;stroke-width:5;stroke-miterlimit:10;stroke-dasharray:none"
       inkscape:connector-curvature="0"
       id="path64"
       stroke-miterlimit="10"
       d="m 30,272 93,0" />
  </g>
</svg>
